<?xml version="1.0" standalone="no"?>
<!DOCTYPE svg PUBLIC "-//W3C//DTD SVG 20010904//EN"
 "http://www.w3.org/TR/2001/REC-SVG-20010904/DTD/svg10.dtd">
<svg version="1.0" xmlns="http://www.w3.org/2000/svg"
 width="534.000000pt" height="534.000000pt" viewBox="0 0 534.000000 534.000000"
 preserveAspectRatio="xMidYMid meet">

<g transform="translate(0.000000,534.000000) scale(0.100000,-0.100000)"
fill="#000000" stroke="none">
<path d="M1947 4673 c-3 -5 1 -44 9 -88 20 -123 20 -123 -30 -69 -80 89 -204
144 -321 144 -65 0 -181 -25 -212 -46 l-25 -15 50 -48 c27 -26 57 -62 66 -79
l16 -31 -30 11 c-48 16 -148 5 -210 -23 -31 -14 -96 -60 -145 -102 -49 -42
-103 -82 -122 -88 -18 -6 -33 -16 -33 -24 0 -13 77 -75 142 -114 l37 -22 -80
-77 c-92 -87 -165 -192 -210 -301 -17 -42 -43 -88 -57 -103 -33 -36 -118 -67
-200 -75 -90 -9 -102 -22 -102 -119 0 -41 4 -84 10 -94 6 -10 39 -28 77 -41
161 -52 225 -102 267 -209 82 -203 241 -372 437 -465 125 -59 214 -78 369 -78
107 0 152 5 215 22 264 71 473 252 578 501 19 47 41 111 48 143 24 112 151
212 266 211 70 -1 150 -41 205 -103 36 -41 46 -60 61 -128 20 -92 85 -227 147
-308 297 -385 847 -455 1224 -155 110 87 178 175 247 318 33 67 64 122 69 122
4 0 142 -47 305 -105 163 -58 298 -105 300 -105 2 0 -63 103 -145 228 -140
212 -150 231 -150 275 0 54 -25 87 -65 87 -21 0 -48 37 -196 260 -94 143 -175
260 -179 260 -4 0 -24 -18 -45 -41 l-36 -41 -57 53 c-31 29 -61 56 -65 59 -5
4 9 18 30 30 66 40 143 102 143 115 0 8 -15 19 -34 25 -19 6 -74 45 -123 87
-48 42 -113 87 -143 102 -62 28 -162 39 -210 23 -16 -6 -30 -9 -30 -6 0 15 47
73 88 110 l45 41 -25 17 c-32 21 -147 46 -213 46 -61 0 -150 -22 -207 -51 -23
-12 -68 -48 -100 -79 -32 -32 -58 -53 -58 -47 0 7 6 52 14 100 16 109 9 115
-64 62 -102 -75 -195 -220 -226 -353 -12 -49 -15 -98 -11 -179 l4 -111 -42
-49 c-55 -64 -95 -124 -134 -201 -44 -87 -62 -93 -170 -56 -114 40 -199 39
-313 0 -76 -27 -86 -28 -113 -15 -16 8 -36 28 -44 44 -37 73 -103 175 -143
220 l-43 48 0 146 c-1 121 -5 155 -22 201 -49 132 -119 233 -211 303 -49 37
-67 44 -75 30z m-157 -654 c88 -17 226 -89 301 -158 200 -183 266 -451 174
-715 -48 -137 -172 -281 -302 -349 -302 -158 -672 -66 -860 216 -131 195 -146
441 -41 657 32 67 58 102 122 166 171 171 360 228 606 183z m2225 -5 c315 -75
540 -398 496 -715 -22 -160 -82 -280 -197 -394 -116 -115 -249 -173 -420 -182
-198 -11 -359 51 -499 191 -137 138 -204 311 -192 501 10 165 74 310 188 425
167 166 392 229 624 174z"/>
<path d="M405 2693 c545 -545 2304 -2283 2310 -2283 4 0 -111 231 -254 514
-144 283 -261 516 -261 518 0 1 53 3 118 3 158 0 252 32 375 128 l59 46 61
-46 c169 -124 336 -160 523 -113 105 27 112 35 80 91 -14 24 -26 47 -26 50 0
3 33 -6 73 -19 61 -21 85 -24 159 -19 73 4 99 10 162 40 78 37 182 125 174
149 -3 7 -27 16 -54 19 -48 6 -107 30 -118 48 -3 4 12 16 34 26 53 24 122 99
145 158 28 74 18 196 -24 281 -37 75 -57 84 -66 29 -12 -71 -27 -106 -64 -146
-45 -51 -102 -77 -166 -77 -61 0 -116 24 -196 86 -33 25 -61 45 -63 43 -50
-78 -94 -109 -184 -128 -49 -10 -61 -19 -155 -115 -128 -130 -171 -150 -312
-144 -120 5 -168 32 -284 155 -81 86 -91 93 -142 104 -70 14 -134 52 -162 94
-12 19 -25 35 -28 35 -3 0 -34 -22 -70 -50 -110 -85 -197 -101 -290 -52 -65
33 -113 106 -124 183 -9 66 -29 62 -68 -11 -15 -30 -30 -56 -32 -58 -2 -2
-304 148 -672 333 l-668 337 210 -209z"/>
</g>
</svg>
